<svg width="200" height="200" viewBox="0 0 200 200" fill="none"
  xmlns="http://www.w3.org/2000/svg">
  <g clip-path="url(#clip0_63_37)">
    <mask id="path-1-outside-1_63_37" maskUnits="userSpaceOnUse" x="8" y="16" width="186" height="169" fill="black">
      <rect fill="white" x="8" y="16" width="186" height="169"/>
      <path d="M101.026 170.182L30.9347 100.091C25.3438 94.5 21.6165 88 19.7528 80.5909C17.9347 73.1818 17.9574 65.8182 19.821 58.5C21.6847 51.1364 25.3892 44.7273 30.9347 39.2727C36.6165 33.6818 43.0938 29.9773 50.3665 28.1591C57.6847 26.2955 64.9801 26.2955 72.2528 28.1591C79.571 30.0227 86.071 33.7273 91.7528 39.2727L101.026 48.2727L110.298 39.2727C116.026 33.7273 122.526 30.0227 129.798 28.1591C137.071 26.2955 144.344 26.2955 151.616 28.1591C158.935 29.9773 165.435 33.6818 171.116 39.2727C176.662 44.7273 180.366 51.1364 182.23 58.5C184.094 65.8182 184.094 73.1818 182.23 80.5909C180.412 88 176.707 94.5 171.116 100.091L101.026 170.182Z"/>
    </mask>
    <path d="M101.026 170.182L30.9347 100.091C25.3438 94.5 21.6165 88 19.7528 80.5909C17.9347 73.1818 17.9574 65.8182 19.821 58.5C21.6847 51.1364 25.3892 44.7273 30.9347 39.2727C36.6165 33.6818 43.0938 29.9773 50.3665 28.1591C57.6847 26.2955 64.9801 26.2955 72.2528 28.1591C79.571 30.0227 86.071 33.7273 91.7528 39.2727L101.026 48.2727L110.298 39.2727C116.026 33.7273 122.526 30.0227 129.798 28.1591C137.071 26.2955 144.344 26.2955 151.616 28.1591C158.935 29.9773 165.435 33.6818 171.116 39.2727C176.662 44.7273 180.366 51.1364 182.23 58.5C184.094 65.8182 184.094 73.1818 182.23 80.5909C180.412 88 176.707 94.5 171.116 100.091L101.026 170.182Z" fill="#CE007C"/>
    <path d="M101.026 170.182L93.9545 177.253L101.026 184.324L108.097 177.253L101.026 170.182ZM30.9347 100.091L38.0057 93.0198L38.0057 93.0198L30.9347 100.091ZM19.7528 80.5909L10.041 82.9742L10.0479 83.0022L10.0549 83.0303L19.7528 80.5909ZM19.821 58.5L29.5117 60.9678L29.5136 60.9607L29.5154 60.9535L19.821 58.5ZM30.9347 39.2727L37.947 46.402L37.9485 46.4006L30.9347 39.2727ZM50.3665 28.1591L52.7918 37.8605L52.8131 37.8552L52.8343 37.8498L50.3665 28.1591ZM72.2528 28.1591L69.7705 37.8461L69.7778 37.848L69.785 37.8498L72.2528 28.1591ZM91.7528 39.2727L84.7682 46.4291L84.7781 46.4389L84.7881 46.4485L91.7528 39.2727ZM101.026 48.2727L94.0608 55.4485L101.026 62.2084L107.99 55.4485L101.026 48.2727ZM110.298 39.2727L103.342 32.0885L103.334 32.0969L110.298 39.2727ZM129.798 28.1591L132.281 37.8461L132.281 37.8461L129.798 28.1591ZM151.616 28.1591L149.134 37.8461L149.17 37.8552L149.205 37.8641L151.616 28.1591ZM171.116 39.2727L164.103 46.4006L164.104 46.402L171.116 39.2727ZM182.23 58.5L172.536 60.9535L172.538 60.9607L172.539 60.9678L182.23 58.5ZM182.23 80.5909L172.532 78.1516L172.525 78.1796L172.518 78.2076L182.23 80.5909ZM171.116 100.091L178.188 107.162L178.188 107.162L171.116 100.091ZM108.097 163.111L38.0057 93.0198L23.8636 107.162L93.9545 177.253L108.097 163.111ZM38.0057 93.0198C33.6462 88.6603 30.8576 83.7447 29.4508 78.1516L10.0549 83.0303C12.3753 92.2553 17.0413 100.34 23.8636 107.162L38.0057 93.0198ZM29.4647 78.2076C28.0336 72.3758 28.0575 66.6783 29.5117 60.9678L10.1303 56.0322C7.85727 64.958 7.83576 73.9878 10.041 82.9742L29.4647 78.2076ZM29.5154 60.9535C30.9186 55.4089 33.6737 50.6053 37.947 46.402L23.9223 32.1435C17.1047 38.8493 12.4507 46.8638 10.1267 56.0465L29.5154 60.9535ZM37.9485 46.4006C42.4416 41.9793 47.3613 39.2181 52.7918 37.8605L47.9411 18.4577C38.8262 20.7364 30.7913 25.3843 23.9208 32.1449L37.9485 46.4006ZM52.8343 37.8498C58.5382 36.3973 64.1314 36.4011 69.7705 37.8461L74.7351 18.4721C65.8288 16.1898 56.8311 16.1936 47.8987 18.4684L52.8343 37.8498ZM69.785 37.8498C75.3125 39.2574 80.2762 42.045 84.7682 46.4291L98.7375 32.1163C91.8659 25.4096 83.8295 20.788 74.7207 18.4684L69.785 37.8498ZM84.7881 46.4485L94.0608 55.4485L107.99 41.0969L98.7176 32.0969L84.7881 46.4485ZM107.99 55.4485L117.263 46.4485L103.334 32.0969L94.0608 41.0969L107.99 55.4485ZM117.254 46.4569C121.813 42.0428 126.796 39.2515 132.281 37.8461L127.316 18.4721C118.255 20.7939 110.238 25.4117 103.342 32.0885L117.254 46.4569ZM132.281 37.8461C137.925 36.3998 143.49 36.3998 149.134 37.8461L154.099 18.4721C145.198 16.1911 136.217 16.1911 127.316 18.4721L132.281 37.8461ZM149.205 37.8641C154.686 39.2257 159.621 41.9906 164.103 46.4006L178.13 32.1449C171.248 25.3731 163.183 20.7289 154.028 18.4541L149.205 37.8641ZM164.104 46.402C168.377 50.6053 171.133 55.4089 172.536 60.9535L191.924 56.0465C189.6 46.8638 184.946 38.8493 178.129 32.1435L164.104 46.402ZM172.539 60.9678C173.988 66.6567 173.996 72.3338 172.532 78.1516L191.928 83.0303C194.192 74.0299 194.199 64.9796 191.921 56.0322L172.539 60.9678ZM172.518 78.2076C171.152 83.7757 168.394 88.6716 164.045 93.0198L178.188 107.162C185.021 100.328 189.672 92.2243 191.942 82.9742L172.518 78.2076ZM164.045 93.0198L93.9545 163.111L108.097 177.253L178.188 107.162L164.045 93.0198Z" fill="#CE007C" mask="url(#path-1-outside-1_63_37)"/>
    <path d="M117.443 48H108.811H89.7829C86.7198 48 84.0281 50.2276 83.5639 53.2907L81.6149 65.8211V65.9141H72.3327C69.8268 65.9141 67.8774 67.9562 67.8774 70.3694C67.8774 72.8754 69.9195 74.8248 72.3327 74.9175H80.2223L78.8302 83.5497L78.7374 84.1993H69.4553C66.9494 84.1993 65 86.2414 65 88.6546C65 91.0678 67.0421 93.1099 69.4553 93.1099H77.3449L73.0753 120.12L71.6832 129.124L70.9405 133.95C70.3837 137.756 73.2611 141.19 77.1595 141.19H83.0997H91.2678H97.9509C101.014 141.19 103.613 138.963 104.17 135.9L108.161 111.117H110.481H117.907C135.45 111.117 149.744 96.6372 149.465 79.0016C149.187 61.6445 134.707 48 117.443 48ZM89.3187 74.9175L117.35 75.0102C119.856 75.0102 121.991 77.0523 121.991 79.6512C121.991 82.1575 119.949 84.2923 117.35 84.2923H87.8335L89.3187 74.9175ZM117.536 102.021H112.802H110.574H105.841C102.777 102.021 100.178 104.248 99.6216 107.311L95.6304 132.187H80.4081L86.4413 93.2029H117.35C124.868 93.2029 130.902 87.0767 130.902 79.6512C130.902 72.2258 124.776 66.0998 117.35 66.0998L90.8036 66.0068L92.1961 57.0962H118C130.623 57.0962 140.833 67.492 140.555 80.1154C140.183 92.3673 129.881 102.021 117.536 102.021Z" fill="white"/>
  </g>
  <defs>
    <clipPath id="clip0_63_37">
      <rect width="200" height="200" fill="white"/>
    </clipPath>
  </defs>
</svg>
